<?xml version="1.0" encoding="utf-8"?>
<!-- Generator: Adobe Illustrator 19.2.0, SVG Export Plug-In . SVG Version: 6.00 Build 0)  -->
<!DOCTYPE svg PUBLIC "-//W3C//DTD SVG 1.1//EN" "http://www.w3.org/Graphics/SVG/1.1/DTD/svg11.dtd">
<svg version="1.1" id="Layer_1" xmlns="http://www.w3.org/2000/svg" xmlns:xlink="http://www.w3.org/1999/xlink" x="0px" y="0px"
	 viewBox="0 0 120 80" style="enable-background:new 0 0 120 80;" xml:space="preserve">
<style type="text/css">
	.st0{fill:#FEDD55;}
</style>
<path class="st0" d="M102.4,36L90.8,24.4c-0.4-0.4-0.9-0.6-1.4-0.6H75.2V13.4h-8v10.4h-8c-0.1,0-0.2,0-0.2,0L46.2,11
	c-0.1-0.1-0.2-0.2-0.3-0.2c-0.2-0.1-0.5-0.2-0.7-0.3c-0.1,0-0.3,0-0.4,0c-0.1,0-0.3,0-0.4,0c-0.3,0-0.5,0.1-0.7,0.3
	c-0.1,0.1-0.2,0.2-0.3,0.2L18.5,35.9c-0.8,0.8-0.8,2,0,2.8c0.1,0.1,0.3,0.3,0.5,0.3c0.3,0.2,0.6,0.2,0.9,0.2h0c0.1,0,0.3,0,0.4,0
	c0.2,0,0.3-0.1,0.5-0.2c0.2-0.1,0.4-0.2,0.5-0.4l2-2l21.6-21.6l23.6,23.6c0.4,0.4,0.9,0.6,1.4,0.6H101c0.8,0,1.5-0.5,1.8-1.2
	C103.2,37.4,103,36.6,102.4,36z"/>
<g>
	<path class="st0" d="M98.5,65.1L98.5,65.1l0-23.7H69.8c-1.1,0-2.1-0.4-2.8-1.2L44.8,18.1L23.2,39.6V65c-1.4,0-2.5,1.1-2.5,2.5
		c0,1.4,1.1,2.5,2.5,2.5L38,70V48.5h13.8v21.6l46.7,0.1c0,0,0,0,0,0c1.4,0,2.5-1.1,2.5-2.5C101,66.3,99.9,65.1,98.5,65.1z M38,46
		c0-3.8,3.1-6.9,6.9-6.9s6.9,3.1,6.9,6.9H38z M75,59.2h-8.2V48H75V59.2z M91.9,59.2h-8.2V48h8.2V59.2z"/>
</g>
</svg>
